<svg width="16" height="15" viewBox="0 0 16 15" fill="none" xmlns="http://www.w3.org/2000/svg">
<path fill-rule="evenodd" clip-rule="evenodd" d="M2.19971 0.0166931H13.8003C15.0132 0.0166931 16 1.00331 16 2.2164V9.31572C16 10.5286 15.0132 11.5154 13.8003 11.5154H6.82168L2.19189 14.737V11.5154C0.98252 11.5111 0 10.5261 0 9.31572V2.2164C0 1.00331 0.986816 0.0166931 2.19971 0.0166931ZM13.8003 10.5779C14.4963 10.5779 15.0625 10.0116 15.0625 9.31572V2.2164C15.0625 1.52031 14.4963 0.954193 13.8003 0.954193H2.19971C1.50371 0.954193 0.9375 1.52031 0.9375 2.2164V9.31572C0.9375 10.0116 1.50371 10.5779 2.19971 10.5779H3.12939V12.9426L6.52754 10.5779H13.8003Z" fill="#9D9D9D"/>
<path fill-rule="evenodd" clip-rule="evenodd" d="M4.28223 3.32928H11.7176V4.26678H4.28223L4.28223 3.32928Z" fill="#9D9D9D"/>
<path fill-rule="evenodd" clip-rule="evenodd" d="M4.28223 5.32928H11.7176V6.26678H4.28223L4.28223 5.32928Z" fill="#9D9D9D"/>
<path fill-rule="evenodd" clip-rule="evenodd" d="M4.28223 7.32928H11.7176V8.26678H4.28223L4.28223 7.32928Z" fill="#9D9D9D"/>
</svg>
