<svg width="15" height="15" viewBox="0 0 15 15" fill="none" xmlns="http://www.w3.org/2000/svg">
<path fill-rule="evenodd" clip-rule="evenodd" d="M7.51049 0C5.5084 0 3.62869 0.781381 2.21342 2.19665C0.798146 3.61192 0.0199041 5.49477 0.0199041 7.49372C0.0199041 9.49268 0.798146 11.3755 2.21342 12.7908C3.62869 14.2061 5.5084 14.9843 7.51049 14.9843C8.75317 14.9843 9.97388 14.6768 11.0597 14.0931C11.8661 14.6485 12.8327 14.9655 13.7521 14.9655C13.9373 14.9655 14.1161 14.9498 14.2825 14.9247C14.5868 14.8776 14.8191 14.6423 14.8661 14.3379C14.9101 14.0366 14.7563 13.7416 14.4833 13.6067C14.0377 13.387 13.6392 12.9289 13.3034 12.2416C15.7354 9.28556 15.5377 4.92364 12.8076 2.19351C11.3923 0.778243 9.51258 0 7.51049 0ZM7.51049 14.137C5.73748 14.137 4.06802 13.4467 2.81279 12.1914C0.22074 9.60251 0.22074 5.38494 2.81279 2.78975C4.06802 1.53452 5.73434 0.844142 7.51049 0.844142C9.2835 0.844142 10.953 1.53452 12.2082 2.78975C14.6873 5.26883 14.8097 9.26674 12.4875 11.8902C12.3776 12.0157 12.3494 12.1914 12.4153 12.342C12.7699 13.1548 13.1935 13.7385 13.6988 14.1151C13.2751 14.1056 12.3086 13.9958 11.3484 13.2521C11.273 13.1956 11.1789 13.1642 11.0879 13.1642C11.0157 13.1642 10.9404 13.1862 10.8745 13.2238C9.86091 13.8201 8.69668 14.137 7.51049 14.137Z" fill="#434343"/>
<path fill-rule="evenodd" clip-rule="evenodd" d="M7.40372 4.80439C6.9236 4.32427 6.28657 4.06067 5.60874 4.06067C4.93406 4.06067 4.29703 4.32427 3.8169 4.80439C3.33991 5.28452 3.07632 5.92155 3.07632 6.59937C3.07632 7.27406 3.33991 7.91109 3.82004 8.39121L7.21544 11.7741C7.29703 11.8556 7.40686 11.8964 7.51355 11.8964C7.62025 11.8964 7.73008 11.8525 7.81167 11.7709L11.1977 8.38494C11.6746 7.90481 11.9414 7.27092 11.9414 6.5931C11.9445 5.91841 11.6809 5.28138 11.2008 4.80125C10.7238 4.32427 10.0868 4.06067 9.41209 4.06067C8.73427 4.06067 8.09724 4.32427 7.61711 4.80439L7.51042 4.91109L7.40372 4.80439ZM7.51355 10.8734L4.41941 7.79184C4.09933 7.47176 3.9236 7.04812 3.9236 6.59623C3.92046 6.14749 4.09619 5.72385 4.41627 5.40377C4.73636 5.08368 5.16 4.90795 5.60874 4.90795C6.06063 4.90795 6.48427 5.08368 6.80435 5.40377L7.20916 5.80858C7.37548 5.97489 7.64222 5.97489 7.80853 5.80858L8.21648 5.40063C8.53657 5.08054 8.96021 4.90481 9.41209 4.90481C9.86397 4.90481 10.2876 5.08054 10.6046 5.39749C10.9215 5.71443 11.0972 6.13807 11.0972 6.58996C11.0972 7.04184 10.9215 7.46548 10.6014 7.78556L7.51355 10.8734Z" fill="#434343"/>
</svg>
