<svg width="16" height="4" viewBox="0 0 16 4" fill="none" xmlns="http://www.w3.org/2000/svg">
<path fill-rule="evenodd" clip-rule="evenodd" d="M1.81817 3.64824C2.82232 3.64824 3.63634 2.83422 3.63634 1.83007C3.63634 0.825924 2.82232 0.0119019 1.81817 0.0119019C0.814022 0.0119019 0 0.825924 0 1.83007C0 2.83422 0.814022 3.64824 1.81817 3.64824Z" fill="#B2B2B2"/>
<path fill-rule="evenodd" clip-rule="evenodd" d="M7.99981 3.64824C9.00396 3.64824 9.81798 2.83422 9.81798 1.83007C9.81798 0.825924 9.00396 0.0119019 7.99981 0.0119019C6.99566 0.0119019 6.18164 0.825924 6.18164 1.83007C6.18164 2.83422 6.99566 3.64824 7.99981 3.64824Z" fill="#B2B2B2"/>
<path fill-rule="evenodd" clip-rule="evenodd" d="M14.1815 3.64824C15.1856 3.64824 15.9996 2.83422 15.9996 1.83007C15.9996 0.825924 15.1856 0.0119019 14.1815 0.0119019C13.1773 0.0119019 12.3633 0.825924 12.3633 1.83007C12.3633 2.83422 13.1773 3.64824 14.1815 3.64824Z" fill="#B2B2B2"/>
</svg>
